<svg width="222" height="44" viewBox="0 0 222 44" fill="none" xmlns="http://www.w3.org/2000/svg">
<g clip-path="url(#clip0_863_26978)">
<path d="M79.5871 23.1558H63.7445C63.9524 24.9306 64.493 26.2927 65.4494 27.2008C66.4058 28.1088 67.6532 28.5629 69.2333 28.5629C71.6035 28.5629 73.1836 27.5723 74.0568 25.5497H79.005C78.4644 27.6961 77.3001 29.3884 75.5537 30.6679C73.8073 31.9475 71.6866 32.5666 69.1501 32.5666C65.9899 32.5666 63.4535 31.576 61.5407 29.5535C59.628 27.531 58.63 24.8893 58.63 21.5873C58.63 18.2852 59.5864 15.6023 61.4991 13.621C63.4535 11.5985 65.9899 10.6079 69.067 10.6079C72.2688 10.6079 74.8052 11.6398 76.6764 13.7449C78.5476 15.8499 79.504 18.5741 79.504 21.9588V23.1558H79.5871ZM63.7861 19.606H74.431C74.2231 18.0788 73.6409 16.8406 72.7262 15.9325C71.8114 15.0244 70.6055 14.5704 69.1086 14.5704C66.0315 14.5704 64.2851 16.2627 63.7861 19.606Z" fill="black"/>
<path d="M87.9438 28.6454C85.3241 25.9212 83.9935 22.2064 83.9935 17.6248C83.9935 13.0019 85.2826 9.28707 87.9022 6.56287C90.4803 3.83866 93.8899 2.47656 98.1728 2.47656C101.583 2.47656 104.493 3.38463 106.905 5.20077C109.317 7.0169 110.814 9.65855 111.396 13.0844H105.782C105.283 11.1858 104.368 9.7411 103.038 8.75048C101.707 7.75987 100.086 7.26456 98.1313 7.26456C95.5532 7.26456 93.4741 8.17262 92.0188 10.03C90.5218 11.8462 89.7734 14.4053 89.7734 17.6248C89.7734 20.8856 90.5218 23.4034 91.9772 25.2195C93.4325 27.0357 95.5116 27.9437 98.1313 27.9437C100.169 27.9437 101.874 27.3659 103.329 26.1689C104.784 24.9719 105.658 23.3208 105.949 21.2158H111.479C111.105 24.8893 109.691 27.7374 107.113 29.7599C104.618 31.7824 101.583 32.773 98.0897 32.773C93.9315 32.7317 90.5634 31.3696 87.9438 28.6454Z" fill="black"/>
<path d="M116.719 32.1124V11.103H121.876V32.1124H116.719ZM116.761 8.33755V3.54956H121.834V8.33755H116.761Z" fill="black"/>
<path d="M139.175 14.9831H134.975V26.334C134.975 26.9944 135.141 27.4897 135.516 27.7786C135.89 28.0676 136.514 28.1914 137.387 28.1914H139.133V32.1126C138.011 32.2364 137.096 32.2777 136.431 32.2777C134.144 32.2777 132.439 31.8649 131.399 30.9981C130.36 30.1313 129.819 28.7692 129.819 26.9118V14.9831H126.534V11.0619H129.819V4.99438H134.934V11.1032H139.133V14.9831H139.175Z" fill="black"/>
<path d="M144.245 32.1127V11.1033H149.401V32.1127H144.245ZM144.287 8.3378V3.5498H149.36V8.3378H144.287Z" fill="black"/>
<path d="M172.564 28.1089V32.1127H154.6V28.728L162.958 18.2853C163.332 17.8312 163.831 17.2534 164.414 16.5517C164.996 15.85 165.411 15.3547 165.619 15.0657C164.954 15.107 163.499 15.107 161.253 15.107H154.767V11.1033H172.023V14.4466L163.665 24.8894C163.291 25.3434 162.792 25.9213 162.21 26.623C161.628 27.3247 161.212 27.82 161.004 28.1089C161.669 28.0676 163.124 28.0676 165.37 28.0676H172.564V28.1089Z" fill="black"/>
<path d="M196.64 23.1555H180.797C181.005 24.9304 181.546 26.2925 182.502 27.2005C183.458 28.1086 184.706 28.5626 186.286 28.5626C188.656 28.5626 190.236 27.572 191.109 25.5495H196.058C195.517 27.6958 194.353 29.3882 192.606 30.6677C190.86 31.9473 188.739 32.5664 186.203 32.5664C183.043 32.5664 180.506 31.5758 178.593 29.5533C176.681 27.5307 175.683 24.8891 175.683 21.587C175.683 18.285 176.639 15.602 178.552 13.6208C180.506 11.5983 183.043 10.6077 186.12 10.6077C189.321 10.6077 191.858 11.6396 193.729 13.7446C195.6 15.8497 196.557 18.5739 196.557 21.9585V23.1555H196.64ZM180.839 19.6058H191.442C191.234 18.0786 190.652 16.8403 189.737 15.9322C188.822 15.0242 187.616 14.5701 186.12 14.5701C183.084 14.5701 181.338 16.2624 180.839 19.6058Z" fill="black"/>
<path d="M219.052 12.5891C220.382 13.91 221.048 15.7674 221.048 18.2027V32.1126H215.892V19.0282C215.892 16.3865 214.561 15.0244 211.9 15.0244C210.569 15.0244 209.488 15.4785 208.573 16.4278C207.658 17.3771 207.201 18.6567 207.201 20.3077V32.0713H202.045V11.1032H207.035V14.1164C208.656 11.7636 210.86 10.6079 213.646 10.6079C215.892 10.6079 217.721 11.2683 219.052 12.5891Z" fill="black"/>
<mask id="mask0_863_26978" style="mask-type:alpha" maskUnits="userSpaceOnUse" x="21" y="39" width="6" height="5">
<path fill-rule="evenodd" clip-rule="evenodd" d="M26.381 43.9928H21.6823V39.3286H26.381V43.9928Z" fill="white"/>
</mask>
<g mask="url(#mask0_863_26978)">
<path fill-rule="evenodd" clip-rule="evenodd" d="M26.3855 41.6813C26.3855 42.9609 25.346 44.0341 24.057 44.0341C22.7679 44.0341 21.7284 43.0022 21.7284 41.6813C21.7284 40.4018 22.7679 39.3286 24.057 39.3286C25.3044 39.3286 26.3855 40.3605 26.3855 41.6813Z" fill="#E8292B"/>
</g>
<mask id="mask1_863_26978" style="mask-type:alpha" maskUnits="userSpaceOnUse" x="0" y="11" width="5" height="5">
<path fill-rule="evenodd" clip-rule="evenodd" d="M0 15.8429V11.1375H4.65714V15.8429H0Z" fill="white"/>
</mask>
<g mask="url(#mask1_863_26978)">
<path fill-rule="evenodd" clip-rule="evenodd" d="M4.65714 13.4902C4.65714 14.7697 3.6176 15.8429 2.32857 15.8429C1.03954 15.8429 0 14.7697 0 13.4902C0 12.2106 1.03954 11.1375 2.32857 11.1375C3.6176 11.1375 4.65714 12.2106 4.65714 13.4902Z" fill="#221E1F"/>
</g>
<path fill-rule="evenodd" clip-rule="evenodd" d="M40.6657 8.75043C40.6657 10.03 39.6261 11.1031 38.3371 11.1031C37.0481 11.1031 36.0085 10.0713 36.0085 8.75043C36.0085 7.47088 37.0481 6.39771 38.3371 6.39771C39.6261 6.43898 40.6657 7.47088 40.6657 8.75043Z" fill="#14B04C"/>
<path d="M19.5013 12.3413C16.8401 13.4971 14.262 15.1481 12.0582 17.2532C9.85435 19.3582 7.9416 21.8348 6.65257 24.6003C6.02885 25.9624 5.52987 27.407 5.36354 28.8929C5.19722 30.3376 5.28038 31.8235 5.94568 33.1031L6.19517 33.5984L6.52783 34.0524L6.69415 34.2588L6.90206 34.4652L7.27629 34.8779C7.40104 35.0018 7.56737 35.1256 7.69211 35.2081C7.85844 35.332 7.98318 35.4558 8.14951 35.5383L8.64849 35.8273L8.89798 35.9924L9.14747 36.1162C10.5612 36.7766 12.1829 37.0655 13.8462 37.1894C13.9709 37.1894 14.0541 37.3132 14.0541 37.3958C14.0541 37.5196 13.9709 37.5609 13.8462 37.6021C12.1829 37.726 10.4365 37.6434 8.77323 37.1481L8.44058 37.0655L8.14951 36.9417L7.4842 36.6528C7.27629 36.5702 7.06839 36.4464 6.90206 36.3226C6.69415 36.1988 6.48624 36.1162 6.31992 35.9924L5.77936 35.5796L5.48829 35.3732L5.2388 35.1256L4.73982 34.6303L4.324 34.0524L4.15768 33.7635C4.11609 33.6809 4.03293 33.5571 3.99135 33.4746L3.6587 32.8554C3.57553 32.649 3.49237 32.4427 3.40921 32.195C3.32604 31.9886 3.24288 31.741 3.2013 31.5346C3.07656 31.0393 2.95181 30.5852 2.91023 30.1312C2.86865 29.8836 2.82707 29.6772 2.82707 29.4295L2.78548 28.7278C2.7439 26.9117 3.03497 25.0956 3.53395 23.4033C4.53191 19.9774 6.31992 16.8404 8.52374 14.0336C10.7276 11.2269 13.4304 8.75034 16.6321 6.81038C18.0875 5.90231 20.0418 6.35634 20.9566 7.801C21.8714 9.24565 21.414 11.1856 19.9587 12.0937C19.7923 12.2175 19.626 12.2588 19.5013 12.3413Z" fill="#221E1F"/>
<path d="M30.7699 24.1051C31.1442 21.257 31.061 18.2026 30.3957 15.2308C29.7304 12.2589 28.6077 9.36961 26.8613 6.85178C25.9881 5.61351 24.9901 4.45779 23.8258 3.54972C22.6615 2.64165 21.3309 1.98124 19.8756 1.85741L19.335 1.81614L18.7944 1.85741H18.5034L18.2955 1.93996L17.7549 2.06379C17.5886 2.10507 17.4223 2.18762 17.2143 2.27017C17.048 2.35272 16.8401 2.394 16.6738 2.47655L16.1748 2.76548L15.9253 2.88931L15.6758 3.05441C14.3868 3.9212 13.2641 5.15947 12.3077 6.4803C12.2246 6.56285 12.0998 6.60413 12.0167 6.52158C11.9335 6.4803 11.8919 6.35647 11.9335 6.27392C12.7235 4.78799 13.6383 3.38462 14.9274 2.18762L15.1769 1.98124L15.4263 1.77486L15.9669 1.3621C16.1332 1.23827 16.3411 1.11445 16.549 1.03189C16.7569 0.908068 16.9649 0.825516 17.1728 0.701689L17.8381 0.412758L18.1707 0.288931L18.5034 0.206379L19.2103 0.0412758L19.9172 0L20.2914 0C20.4161 0 20.5409 0 20.624 0L21.3309 0.0412758C21.5804 0.0825516 21.7883 0.123827 22.0378 0.165103C22.2873 0.206379 22.4952 0.247655 22.7031 0.330206C23.1605 0.454034 23.6179 0.577861 24.0337 0.78424C24.2416 0.866792 24.4495 0.949343 24.6574 1.07317L25.2812 1.40338C26.9029 2.31144 28.275 3.50844 29.4809 4.78799C31.8926 7.42964 33.6806 10.5253 34.9697 13.8687C36.2587 17.212 36.9656 20.7617 37.0072 24.4765C37.0072 26.2101 35.635 27.6135 33.9301 27.6135C32.1837 27.6135 30.7699 26.2514 30.7699 24.5591C30.7699 24.4353 30.7699 24.2702 30.7699 24.1051Z" fill="#14B04C"/>
<path d="M14.8036 27.7786C17.049 29.5947 19.7102 31.0806 22.6209 32.0712C25.49 33.0618 28.6087 33.5984 31.6441 33.4746C33.1826 33.3921 34.6796 33.1444 36.0518 32.6491C37.424 32.1125 38.713 31.3695 39.5446 30.2138L39.8773 29.7598L40.1268 29.2645L40.2515 29.0168L40.3347 28.7692L40.501 28.2326C40.5426 28.0675 40.5842 27.8611 40.6257 27.696C40.6673 27.5309 40.7089 27.3245 40.7089 27.1594L40.7505 26.5816V26.2926V26.0037C40.6673 24.4352 40.2099 22.8667 39.5862 21.3808C39.5446 21.257 39.5862 21.1744 39.7109 21.0919C39.7941 21.0506 39.9189 21.0919 39.9604 21.1744C40.8336 22.5778 41.5405 24.1463 41.9148 25.8799L41.9979 26.2101L42.0395 26.5403L42.0811 27.2007C42.1227 27.4071 42.0811 27.6547 42.0811 27.8611C42.0811 28.0675 42.0811 28.3151 42.0395 28.5215L41.9148 29.1819L41.8316 29.5121L41.7069 29.8423L41.499 30.544L41.1663 31.1632L41 31.4934C40.9584 31.5759 40.8752 31.6997 40.7921 31.7823L40.3763 32.3602C40.2099 32.5253 40.0852 32.6904 39.9189 32.8967C39.7525 33.0618 39.5862 33.2682 39.4199 33.3921C39.0872 33.681 38.713 34.0112 38.3388 34.2588C38.1308 34.3827 37.9645 34.5478 37.7566 34.6303L37.1745 34.9605C35.5528 35.8273 33.8064 36.4052 32.0599 36.7354C28.5255 37.3958 24.9079 37.272 21.4151 36.6528C17.8806 36.0337 14.4293 34.7542 11.2276 32.8555C9.73063 31.9887 9.27323 30.09 10.1464 28.6041C11.0197 27.1181 12.9324 26.6641 14.4293 27.5309C14.5541 27.5722 14.6788 27.696 14.8036 27.7786Z" fill="#E8292B"/>
</g>
<defs>
<clipPath id="clip0_863_26978">
<rect width="221.048" height="44" fill="white"/>
</clipPath>
</defs>
</svg>
