<svg width="178" height="35" viewBox="0 0 178 35" fill="none" xmlns="http://www.w3.org/2000/svg">
<path d="M63.7455 18.8077H51.0564C51.2229 20.1845 51.6559 21.2411 52.4219 21.9455C53.1879 22.6499 54.187 23.0021 55.4526 23.0021C57.351 23.0021 58.6165 22.2337 59.3159 20.6648H63.2792C62.8462 22.3297 61.9137 23.6424 60.5149 24.635C59.1161 25.6276 57.4176 26.1078 55.386 26.1078C52.8548 26.1078 50.8232 25.3394 49.2912 23.7705C47.7592 22.2016 46.9599 20.1525 46.9599 17.591C46.9599 15.0296 47.7259 12.9484 49.2579 11.4115C50.8232 9.84265 52.8548 9.07422 55.3194 9.07422C57.8838 9.07422 59.9154 9.87467 61.4141 11.5076C62.9128 13.1405 63.6788 15.2537 63.6788 17.8792V18.8077H63.7455ZM51.0897 16.0542H59.6157C59.4492 14.8695 58.9829 13.9089 58.2502 13.2046C57.5175 12.5002 56.5516 12.148 55.3527 12.148C52.8881 12.148 51.4893 13.4607 51.0897 16.0542Z" fill="#535D66"/>
<path d="M70.4387 23.0666C68.3405 20.9534 67.2747 18.0717 67.2747 14.5177C67.2747 10.9317 68.3072 8.05007 70.4054 5.93688C72.4703 3.82369 75.2013 2.76709 78.6316 2.76709C81.3626 2.76709 83.694 3.47149 85.6256 4.88028C87.5573 6.28908 88.7563 8.33824 89.2225 10.9957H84.7264C84.3267 9.52291 83.594 8.40227 82.5283 7.63384C81.4625 6.86541 80.1637 6.48119 78.5983 6.48119C76.5334 6.48119 74.8682 7.18559 73.7026 8.6264C72.5036 10.0352 71.9041 12.0203 71.9041 14.5177C71.9041 17.0472 72.5036 19.0003 73.6692 20.4091C74.8349 21.8179 76.5001 22.5222 78.5983 22.5222C80.2303 22.5222 81.5958 22.074 82.7614 21.1455C83.9271 20.2169 84.6265 18.9362 84.8596 17.3033H89.2891C88.9894 20.1529 87.857 22.3622 85.7921 23.931C83.7939 25.4999 81.3626 26.2684 78.565 26.2684C75.2346 26.2363 72.5369 25.1798 70.4387 23.0666Z" fill="#535D66"/>
<path d="M93.4866 25.7561V9.45892H97.6164V25.7561H93.4866ZM93.5199 7.31371V3.59961H97.5831V7.31371H93.5199Z" fill="#535D66"/>
<path d="M111.472 12.4683H108.108V21.2733C108.108 21.7856 108.242 22.1698 108.541 22.394C108.841 22.6181 109.341 22.7141 110.04 22.7141H111.439V25.7559C110.54 25.8519 109.807 25.8839 109.274 25.8839C107.442 25.8839 106.077 25.5637 105.244 24.8914C104.412 24.219 103.979 23.1624 103.979 21.7216V12.4683H101.348V9.42663H103.979V4.71997H108.075V9.45865H111.439V12.4683H111.472Z" fill="#535D66"/>
<path d="M115.533 25.7561V9.45892H119.663V25.7561H115.533ZM115.566 7.31371V3.59961H119.629V7.31371H115.566Z" fill="#535D66"/>
<path d="M138.215 22.6504V25.7562H123.827V23.1307L130.521 15.0301C130.821 14.6779 131.221 14.2297 131.687 13.6854C132.153 13.1411 132.486 12.7568 132.653 12.5327C132.12 12.5647 130.954 12.5647 129.156 12.5647H123.96V9.45898H137.782V12.0524L131.088 20.153C130.788 20.5052 130.388 20.9535 129.922 21.4978C129.456 22.0421 129.123 22.4263 128.956 22.6504C129.489 22.6184 130.655 22.6184 132.453 22.6184H138.215V22.6504Z" fill="#535D66"/>
<path d="M157.498 18.8077H144.809C144.976 20.1845 145.409 21.2411 146.175 21.9455C146.941 22.6499 147.94 23.0021 149.206 23.0021C151.104 23.0021 152.369 22.2337 153.069 20.6648H157.032C156.599 22.3297 155.667 23.6424 154.268 24.635C152.869 25.6276 151.171 26.1078 149.139 26.1078C146.608 26.1078 144.576 25.3394 143.044 23.7705C141.512 22.2016 140.713 20.1525 140.713 17.591C140.713 15.0296 141.479 12.9484 143.011 11.4115C144.576 9.84265 146.608 9.07422 149.072 9.07422C151.637 9.07422 153.668 9.87467 155.167 11.5076C156.666 13.1405 157.432 15.2537 157.432 17.8792V18.8077H157.498ZM144.843 16.0542H153.335C153.169 14.8695 152.703 13.9089 151.97 13.2046C151.237 12.5002 150.271 12.148 149.072 12.148C146.641 12.148 145.242 13.4607 144.843 16.0542Z" fill="#535D66"/>
<path d="M175.449 10.6111C176.515 11.6357 177.048 13.0765 177.048 14.9655V25.7556H172.918V15.6059C172.918 13.5568 171.852 12.5002 169.721 12.5002C168.655 12.5002 167.789 12.8524 167.056 13.5888C166.324 14.3252 165.957 15.3177 165.957 16.5985V25.7236H161.828V9.45844H165.824V11.7958C167.123 9.97073 168.888 9.07422 171.12 9.07422C172.918 9.07422 174.384 9.58651 175.449 10.6111Z" fill="#535D66"/>
<mask id="mask0_863_27122" style="mask-type:alpha" maskUnits="userSpaceOnUse" x="17" y="31" width="5" height="4">
<path fill-rule="evenodd" clip-rule="evenodd" d="M21.1299 34.9711H17.3665V31.353H21.1299V34.9711Z" fill="#535D66"/>
</mask>
<g mask="url(#mask0_863_27122)">
<path fill-rule="evenodd" clip-rule="evenodd" d="M21.1337 33.1781C21.1337 34.1706 20.3011 35.0031 19.2686 35.0031C18.2362 35.0031 17.4036 34.2026 17.4036 33.1781C17.4036 32.1855 18.2362 31.353 19.2686 31.353C20.2678 31.353 21.1337 32.1535 21.1337 33.1781Z" fill="#535D66"/>
</g>
<mask id="mask1_863_27122" style="mask-type:alpha" maskUnits="userSpaceOnUse" x="0" y="9" width="4" height="5">
<path fill-rule="evenodd" clip-rule="evenodd" d="M0 13.1354V9.48535H3.73012V13.1354H0Z" fill="#535D66"/>
</mask>
<g mask="url(#mask1_863_27122)">
<path fill-rule="evenodd" clip-rule="evenodd" d="M3.73012 11.3101C3.73012 12.3027 2.89751 13.1352 1.86506 13.1352C0.832617 13.1352 0 12.3027 0 11.3101C0 10.3176 0.832617 9.48511 1.86506 9.48511C2.89751 9.48511 3.73012 10.3176 3.73012 11.3101Z" fill="#535D66"/>
</g>
<path fill-rule="evenodd" clip-rule="evenodd" d="M32.5711 7.63338C32.5711 8.62594 31.7385 9.45841 30.706 9.45841C29.6736 9.45841 28.841 8.65796 28.841 7.63338C28.841 6.64082 29.6736 5.80835 30.706 5.80835C31.7385 5.84037 32.5711 6.64082 32.5711 7.63338Z" fill="#535D66"/>
<path d="M15.6195 10.4192C13.488 11.3157 11.4231 12.5965 9.65793 14.2294C7.89279 15.8623 6.36077 17.7834 5.32833 19.9286C4.82876 20.9852 4.4291 22.1058 4.29588 23.2585C4.16266 24.3791 4.22927 25.5318 4.76215 26.5243L4.96197 26.9086L5.22841 27.2608L5.36163 27.4208L5.52815 27.5809L5.8279 27.9011C5.92781 27.9972 6.06103 28.0932 6.16094 28.1573C6.29416 28.2533 6.39408 28.3494 6.52729 28.4134L6.92695 28.6375L7.12678 28.7656L7.32661 28.8617C8.45897 29.3739 9.75785 29.5981 11.09 29.6941C11.1899 29.6941 11.2566 29.7902 11.2566 29.8542C11.2566 29.9503 11.1899 29.9823 11.09 30.0143C9.75785 30.1104 8.35905 30.0463 7.02686 29.6621L6.76043 29.5981L6.52729 29.502L5.99442 29.2779C5.8279 29.2139 5.66137 29.1178 5.52815 29.0217C5.36163 28.9257 5.19511 28.8617 5.06189 28.7656L4.62893 28.4454L4.3958 28.2853L4.19597 28.0932L3.79631 27.709L3.46326 27.2608L3.33005 27.0366C3.29674 26.9726 3.23013 26.8765 3.19683 26.8125L2.93039 26.3322C2.86378 26.1721 2.79717 26.012 2.73056 25.8199C2.66395 25.6598 2.59734 25.4677 2.56404 25.3076C2.46412 24.9234 2.36421 24.5712 2.33091 24.219C2.2976 24.0269 2.2643 23.8668 2.2643 23.6747L2.23099 23.1304C2.19769 21.7216 2.43082 20.3128 2.83048 19.0001C3.62979 16.3426 5.06189 13.9092 6.82704 11.732C8.59218 9.55475 10.757 7.63366 13.3214 6.12881C14.4871 5.42441 16.0524 5.77661 16.7851 6.89724C17.5178 8.01788 17.1515 9.52273 15.9858 10.2271C15.8526 10.3232 15.7194 10.3552 15.6195 10.4192Z" fill="#535D66"/>
<path d="M24.6452 19.5443C24.9449 17.335 24.8783 14.9657 24.3454 12.6604C23.8126 10.3551 22.9133 8.11381 21.5145 6.16071C20.8151 5.20016 20.0158 4.30366 19.0833 3.59926C18.1508 2.89486 17.085 2.38257 15.9194 2.28652L15.4864 2.2545L15.0534 2.28652H14.8203L14.6538 2.35055L14.2208 2.44661C14.0876 2.47863 13.9544 2.54266 13.7879 2.6067C13.6546 2.67073 13.4881 2.70275 13.3549 2.76679L12.9552 2.99091L12.7554 3.08697L12.5556 3.21504C11.5231 3.88742 10.6239 4.84796 9.85791 5.87254C9.7913 5.93658 9.69139 5.9686 9.62478 5.90456C9.55817 5.87254 9.52487 5.77649 9.55817 5.71245C10.191 4.5598 10.9237 3.47119 11.9561 2.54266L12.1559 2.38257L12.3558 2.22248L12.7887 1.9023C12.9219 1.80625 13.0885 1.71019 13.255 1.64616C13.4215 1.5501 13.588 1.48606 13.7546 1.39001L14.2874 1.16588L14.5539 1.06983L14.8203 1.00579L15.3865 0.877721L15.9527 0.845703H16.2524C16.3523 0.845703 16.4522 0.845703 16.5188 0.845703L17.085 0.877721C17.2849 0.909739 17.4514 0.941757 17.6512 0.973775C17.851 1.00579 18.0176 1.03781 18.1841 1.10185C18.5504 1.1979 18.9168 1.29396 19.2498 1.45405C19.4164 1.51808 19.5829 1.58212 19.7494 1.67817L20.249 1.93432C21.5479 2.63872 22.6469 3.56724 23.6127 4.5598C25.5444 6.60896 26.9765 9.01031 28.009 11.6038C29.0414 14.1972 29.6076 16.9508 29.6409 19.8324C29.6409 21.1772 28.5418 22.2658 27.1763 22.2658C25.7775 22.2658 24.6452 21.2092 24.6452 19.8965C24.6452 19.8004 24.6452 19.6723 24.6452 19.5443Z" fill="#535D66"/>
<path d="M11.8569 22.3943C13.6554 23.8031 15.7869 24.9558 18.1182 25.7242C20.4162 26.4926 22.9141 26.9089 25.3453 26.8128C26.5776 26.7488 27.7766 26.5567 28.8756 26.1724C29.9747 25.7562 31.0071 25.1799 31.6732 24.2834L31.9397 23.9312L32.1395 23.547L32.2394 23.3549L32.306 23.1627L32.4392 22.7465C32.4725 22.6184 32.5058 22.4583 32.5391 22.3303C32.5724 22.2022 32.6058 22.0421 32.6058 21.914L32.6391 21.4658V21.2417V21.0175C32.5724 19.8008 32.2061 18.5842 31.7065 17.4315C31.6732 17.3355 31.7065 17.2714 31.8064 17.2074C31.873 17.1754 31.973 17.2074 32.0063 17.2714C32.7057 18.36 33.2718 19.5767 33.5716 20.9215L33.6382 21.1776L33.6715 21.4338L33.7048 21.9461C33.7381 22.1062 33.7048 22.2983 33.7048 22.4583C33.7048 22.6184 33.7048 22.8105 33.6715 22.9706L33.5716 23.4829L33.505 23.7391L33.4051 23.9952L33.2385 24.5395L32.9721 25.0198L32.8389 25.2759C32.8056 25.34 32.739 25.436 32.6724 25.5001L32.3393 25.9483C32.2061 26.0764 32.1062 26.2045 31.973 26.3646C31.8397 26.4926 31.7065 26.6527 31.5733 26.7488C31.3069 26.9729 31.0071 27.229 30.7074 27.4211C30.5409 27.5172 30.4076 27.6453 30.2411 27.7093L29.7749 27.9655C28.476 28.6378 27.0772 29.0861 25.6784 29.3422C22.8475 29.8545 19.95 29.7585 17.1524 29.2782C14.3215 28.7979 11.5572 27.8054 8.99274 26.3325C7.79377 25.6602 7.42742 24.1873 8.12681 23.0347C8.82621 21.882 10.3582 21.5298 11.5572 22.2022C11.6571 22.2342 11.757 22.3303 11.8569 22.3943Z" fill="#535D66"/>
</svg>
